<svg width="1200" height="630" viewBox="0 0 1200 630" fill="none" xmlns="http://www.w3.org/2000/svg">
  <rect width="1200" height="630" fill="#0F172A"/>
  <circle cx="716" cy="86" r="260" fill="url(#paint0_radial)" fill-opacity="0.9"/>
  <rect x="72" y="72" width="1056" height="486" rx="32" fill="url(#paint1_linear)" fill-opacity="0.35" stroke="rgba(255,255,255,0.12)"/>
  <rect x="804" y="326" width="252" height="160" rx="28" fill="#111827" stroke="#334155"/>
  <rect x="840" y="360" width="112" height="16" rx="8" fill="#818CF8"/>
  <rect x="840" y="390" width="180" height="72" rx="18" fill="#0F172A" stroke="#334155"/>
  <rect x="112" y="112" width="40" height="40" rx="12" fill="url(#paint2_linear)"/>
  <path d="M122 138C131 123.2 140 115.8 158 112" stroke="white" stroke-width="3.2" stroke-linecap="round"/>
  <path d="M124 123H155M122 131H145" stroke="#C7D2FE" stroke-opacity="0.9" stroke-width="2.4" stroke-linecap="round"/>
  <text x="172" y="141" fill="#E2E8F0" font-family="Arial, Helvetica, sans-serif" font-size="30" font-weight="700">Flowly</text>
  <text x="112" y="250" fill="white" font-family="Arial, Helvetica, sans-serif" font-size="76" font-weight="700">
    <tspan x="112" dy="0">Automate your workflow.</tspan>
    <tspan x="112" dy="88">Ship faster.</tspan>
  </text>
  <text x="112" y="428" fill="#CBD5E1" font-family="Arial, Helvetica, sans-serif" font-size="30">
    <tspan x="112" dy="0">AI workflow automation for teams that want</tspan>
    <tspan x="112" dy="42">less busywork and more momentum.</tspan>
  </text>
  <defs>
    <radialGradient id="paint0_radial" cx="0" cy="0" r="1" gradientUnits="userSpaceOnUse" gradientTransform="translate(716 86) rotate(90) scale(260)">
      <stop stop-color="#6366F1" stop-opacity="0.55"/>
      <stop offset="1" stop-color="#0F172A" stop-opacity="0"/>
    </radialGradient>
    <linearGradient id="paint1_linear" x1="600" y1="72" x2="600" y2="558" gradientUnits="userSpaceOnUse">
      <stop stop-color="#1E293B"/>
      <stop offset="1" stop-color="#0F172A"/>
    </linearGradient>
    <linearGradient id="paint2_linear" x1="112" y1="112" x2="152" y2="152" gradientUnits="userSpaceOnUse">
      <stop stop-color="#818CF8"/>
      <stop offset="1" stop-color="#22D3EE"/>
    </linearGradient>
  </defs>
</svg>
